<?xml version="1.0" encoding="UTF-8"?>
<svg version="1.1" xmlns="http://www.w3.org/2000/svg" width="256" height="256">
<path d="M0 0 C1.15243698 -0.0049649 2.30487396 -0.00992981 3.49223328 -0.01504517 C7.29056405 -0.02960245 11.08885299 -0.03645975 14.88720703 -0.04199219 C16.87268775 -0.04629342 18.85816847 -0.05059523 20.84364903 -0.05496669 C26.37869796 -0.06675406 31.91373691 -0.07430597 37.44879711 -0.07776189 C44.55570465 -0.08222606 51.66241829 -0.09970534 58.76926696 -0.12876248 C64.29578235 -0.15055593 69.82224393 -0.16047561 75.34880173 -0.16180301 C78.63351848 -0.16283932 81.91801386 -0.16999552 85.20269394 -0.18662262 C108.79067753 -0.29745775 134.13550976 -0.29375922 152.74658203 16.37988281 C163.93141899 27.90138711 168.32429977 43.07222927 169.39501953 58.72363281 C169.53963507 60.68355399 169.6878657 62.64321299 169.84033203 64.60253906 C169.89979004 65.45533447 169.95924805 66.30812988 170.02050781 67.18676758 C170.06503964 69.16044328 170.06503964 69.16044328 171.27001953 70.16113281 C171.37012938 72.25947305 171.4008312 74.36118806 171.40283203 76.46191406 C171.40412109 77.74904297 171.40541016 79.03617187 171.40673828 80.36230469 C171.40464355 81.03704834 171.40254883 81.71179199 171.40039062 82.40698242 C171.39506882 84.45466622 171.40032155 86.502128 171.40673828 88.54980469 C171.40480469 90.48629883 171.40480469 90.48629883 171.40283203 92.46191406 C171.4017041 93.64954346 171.40057617 94.83717285 171.39941406 96.06079102 C171.29220186 98.62963578 171.0284327 100.7220851 170.27001953 103.16113281 C171.26001953 103.49113281 172.25001953 103.82113281 173.27001953 104.16113281 C173.27001953 113.73113281 173.27001953 123.30113281 173.27001953 133.16113281 C172.28001953 133.49113281 171.29001953 133.82113281 170.27001953 134.16113281 C170.60001953 135.15113281 170.93001953 136.14113281 171.27001953 137.16113281 C171.36528019 139.36003646 171.40075088 141.56173018 171.40283203 143.76269531 C171.40412109 145.05691406 171.40541016 146.35113281 171.40673828 147.68457031 C171.40464355 148.35713867 171.40254883 149.02970703 171.40039062 149.72265625 C171.39502103 151.78555597 171.40035314 153.8482397 171.40673828 155.91113281 C171.40480469 157.84859375 171.40480469 157.84859375 171.40283203 159.82519531 C171.4017041 161.01580566 171.40057617 162.20641602 171.39941406 163.43310547 C171.27001953 166.16113281 171.27001953 166.16113281 170.27001953 167.16113281 C170.17410871 169.13689576 170.08513601 171.11323413 170.03076172 173.09057617 C169.48214806 191.87693658 166.06864886 210.71016403 153.27001953 225.16113281 C152.79435547 225.76441406 152.31869141 226.36769531 151.82861328 226.98925781 C143.21117839 236.97918233 128.86834883 241.34637347 116.27001953 243.16113281 C114.54807121 243.41827057 114.54807121 243.41827057 112.79133606 243.68060303 C107.41653132 244.34317312 102.05654496 244.3165802 96.64770508 244.32226562 C95.50662796 244.32723053 94.36555084 244.33219543 93.18989563 244.33731079 C89.42883693 244.3518681 85.66782049 244.35872573 81.90673828 244.36425781 C80.61388224 244.36708519 79.32102619 244.36991257 77.98899269 244.37282562 C71.84390996 244.3862572 65.69884587 244.39615509 59.55374974 244.40002751 C52.51590192 244.40448946 45.47825013 244.42195779 38.44046181 244.45102811 C32.96573501 244.47283765 27.49106253 244.4827421 22.01629287 244.48406863 C18.76340146 244.48510398 15.51073353 244.49224357 12.25787926 244.50888824 C-37.54702021 244.74542975 -37.54702021 244.74542975 -55.98388672 228.12988281 C-75.04285654 208.16678729 -74.20551646 177.42051521 -74.16357422 151.72753906 C-74.16815155 149.23192709 -74.17346164 146.73631636 -74.17945862 144.2407074 C-74.18832422 139.04445226 -74.18604149 133.84835136 -74.17602539 128.65209961 C-74.16453665 122.05532518 -74.18478061 115.45908618 -74.21394253 108.86238194 C-74.23245152 103.71877265 -74.23198315 98.57528827 -74.22630501 93.43165398 C-74.22615363 91.00204657 -74.23204273 88.57242967 -74.24459648 86.14285469 C-74.34171941 64.27606397 -74.22809644 37.43046204 -58.72998047 20.16113281 C-58.16794922 19.49597656 -57.60591797 18.83082031 -57.02685547 18.14550781 C-42.67496956 2.34637291 -20.17163004 0.02098759 0 0 Z " fill="#EB6D5A" transform="translate(76.72998046875,4.8388671875)"/>
<path d="M0 0 C2.12534659 0.14069196 4.25027529 0.28770921 6.375 0.4375 C7.55835937 0.51871094 8.74171875 0.59992187 9.9609375 0.68359375 C13 1 13 1 15 2 C14.9071875 3.8253125 14.9071875 3.8253125 14.8125 5.6875 C14.81943838 9.61462154 15.49269579 11.86586973 18 15 C21.83022773 18.43141877 24.62526185 18.42932571 29.59765625 18.3125 C32.59148467 17.9230589 34.49367546 16.62173941 37 15 C40.52709317 15.99199495 43.29428059 18.5867908 46 21 C46.33 21.99 46.66 22.98 47 24 C46.525625 24.53625 46.05125 25.0725 45.5625 25.625 C43.16557664 29.2683235 43.19453523 32.76764876 44 37 C45.71904752 40.06881816 47.80714167 42.40357084 51 44 C52.64525617 44.0761954 54.29126292 44.13673498 55.9375 44.1875 C58.6484375 44.4453125 58.6484375 44.4453125 61 45 C64.34173305 49.15185016 64.55482926 53.83601943 65 59 C64.071875 59.391875 63.14375 59.78375 62.1875 60.1875 C58.60170513 62.22648139 57.49206469 63.1869458 56 67 C55.44288911 71.25570822 55.56974491 74.83578035 57.0625 78.875 C59.73694836 81.80826595 62.27716493 82.66539875 66 84 C65.45144652 88.571279 64.58255197 92.67435795 63 97 C62.40832031 97.01417969 61.81664062 97.02835937 61.20703125 97.04296875 C56.74434335 97.31233164 54.56924796 97.53748603 51 100.4375 C48.32502658 103.8648097 47.82624824 105.59239031 47.75 109.875 C47.71132813 111.17050781 47.71132813 111.17050781 47.671875 112.4921875 C48.05891076 115.45024649 49.04875995 116.79201784 51 119 C49.33248852 122.94139078 46.77289351 125.7892812 44 129 C41.84963095 128.53920663 40.07738295 128.04201716 38.13671875 126.98828125 C34.49910496 125.30580174 30.91401862 125.30805742 27 126 C23.63720414 128.57575853 21.6074006 131.11366256 20 135 C19.76020238 137.36222232 19.76020238 137.36222232 19.875 139.75 C19.89304687 140.54921875 19.91109375 141.3484375 19.9296875 142.171875 C19.95289063 142.77515625 19.97609375 143.3784375 20 144 C13.14115041 147.26889853 7.59570439 148.58179863 0 148 C-0.37125 147.071875 -0.7425 146.14375 -1.125 145.1875 C-3.37946136 141.35491569 -4.8335273 140.44224055 -9 139 C-13.3212987 138.45983766 -15.39619532 138.6748744 -19.25 140.75 C-22.05068232 142.7656072 -22.05068232 142.7656072 -23.3125 145.3125 C-25 147 -25 147 -27.07421875 147.09765625 C-31.15179942 146.72338556 -33.52997342 146.31335105 -37 144 C-37 142.01024624 -36.99392025 140.01969902 -36.921875 138.03125 C-37.03799756 135.01206348 -38.13849948 133.32687565 -40 131 C-43.32783168 128.08814728 -45.92096206 127.07992874 -50.375 126.75 C-54.00395788 126.7226631 -54.00395788 126.7226631 -56.6875 128.625 C-57.450625 129.07875 -58.21375 129.5325 -59 130 C-62.15599054 128.85468085 -64.11608519 127.12117366 -66.3125 124.625 C-66.84488281 124.03976563 -67.37726563 123.45453125 -67.92578125 122.8515625 C-69 121 -69 121 -68.765625 118.87890625 C-68 117 -68 117 -66.4375 115.3125 C-64.16149351 111.65109826 -64.27494201 108.18358462 -65 104 C-66.85483576 100.27421592 -66.85483576 100.27421592 -70 98 C-73.15794481 97.21466899 -76.21670016 96.7534112 -79.453125 96.421875 C-80.71382812 96.21304688 -80.71382812 96.21304688 -82 96 C-83.26237731 93.47524538 -83.09856404 91.68799534 -83.0625 88.875 C-83.05347656 87.96492188 -83.04445312 87.05484375 -83.03515625 86.1171875 C-83.02355469 85.41851562 -83.01195312 84.71984375 -83 84 C-82.071875 83.62875 -81.14375 83.2575 -80.1875 82.875 C-76.30586012 80.59168243 -75.41611012 79.24833037 -74 75 C-73.34418574 70.40930019 -73.3484203 67.13423132 -75.6875 63.0625 C-78.06470692 60.94228842 -79.97042428 59.92570369 -83 59 C-82.45144652 54.428721 -81.58255197 50.32564205 -80 46 C-79.34773438 46.04640625 -78.69546875 46.0928125 -78.0234375 46.140625 C-73.57887744 46.32417615 -70.6443995 46.30462522 -66.5625 44.375 C-62.60758359 40.70946772 -61.17930817 37.73331235 -60.625 32.375 C-61.02740169 28.75338479 -61.81581929 27.75396698 -64 25 C-63.76716855 22.20020186 -63.11359272 21.11815564 -61.15234375 19.078125 C-60.42144531 18.47484375 -59.69054687 17.8715625 -58.9375 17.25 C-58.20402344 16.63640625 -57.47054687 16.0228125 -56.71484375 15.390625 C-56.14894531 14.93171875 -55.58304688 14.4728125 -55 14 C-54.38125 14.495 -53.7625 14.99 -53.125 15.5 C-48.79219521 17.5797463 -44.73868587 17.59329888 -40 17 C-37.61937496 16.02194601 -36.33349734 15.45636479 -34.8125 13.375 C-34.03007112 11.08790019 -33.82003982 9.26748851 -33.625 6.875 C-33 3 -33 3 -31.3125 1.5 C-28.48755945 0.88920204 -25.88118151 0.8690372 -23 1 C-22.731875 1.763125 -22.46375 2.52625 -22.1875 3.3125 C-21.00691501 5.98435024 -20.22469565 7.18026047 -18 9 C-13.69458545 10.29572476 -9.91597355 10.27139957 -5.625 9 C-2.12715995 6.33497901 -1.40108898 4.12542866 0 0 Z " fill="#FEFDFC" transform="translate(118,51)"/>
<path d="M0 0 C1.15243698 -0.0049649 2.30487396 -0.00992981 3.49223328 -0.01504517 C7.29056405 -0.02960245 11.08885299 -0.03645975 14.88720703 -0.04199219 C16.87268775 -0.04629342 18.85816847 -0.05059523 20.84364903 -0.05496669 C26.37869796 -0.06675406 31.91373691 -0.07430597 37.44879711 -0.07776189 C44.55570465 -0.08222606 51.66241829 -0.09970534 58.76926696 -0.12876248 C64.29578235 -0.15055593 69.82224393 -0.16047561 75.34880173 -0.16180301 C78.63351848 -0.16283932 81.91801386 -0.16999552 85.20269394 -0.18662262 C108.79067753 -0.29745775 134.13550976 -0.29375922 152.74658203 16.37988281 C163.93141899 27.90138711 168.32429977 43.07222927 169.39501953 58.72363281 C169.53963507 60.68355399 169.6878657 62.64321299 169.84033203 64.60253906 C169.89979004 65.45533447 169.95924805 66.30812988 170.02050781 67.18676758 C170.06503964 69.16044328 170.06503964 69.16044328 171.27001953 70.16113281 C171.37012938 72.25947305 171.4008312 74.36118806 171.40283203 76.46191406 C171.40412109 77.74904297 171.40541016 79.03617187 171.40673828 80.36230469 C171.40464355 81.03704834 171.40254883 81.71179199 171.40039062 82.40698242 C171.39506882 84.45466622 171.40032155 86.502128 171.40673828 88.54980469 C171.40480469 90.48629883 171.40480469 90.48629883 171.40283203 92.46191406 C171.4017041 93.64954346 171.40057617 94.83717285 171.39941406 96.06079102 C171.29220186 98.62963578 171.0284327 100.7220851 170.27001953 103.16113281 C171.26001953 103.49113281 172.25001953 103.82113281 173.27001953 104.16113281 C173.27001953 113.73113281 173.27001953 123.30113281 173.27001953 133.16113281 C172.28001953 133.49113281 171.29001953 133.82113281 170.27001953 134.16113281 C170.60001953 135.15113281 170.93001953 136.14113281 171.27001953 137.16113281 C171.36528019 139.36003646 171.40075088 141.56173018 171.40283203 143.76269531 C171.40412109 145.05691406 171.40541016 146.35113281 171.40673828 147.68457031 C171.40464355 148.35713867 171.40254883 149.02970703 171.40039062 149.72265625 C171.39502103 151.78555597 171.40035314 153.8482397 171.40673828 155.91113281 C171.40480469 157.84859375 171.40480469 157.84859375 171.40283203 159.82519531 C171.4017041 161.01580566 171.40057617 162.20641602 171.39941406 163.43310547 C171.27001953 166.16113281 171.27001953 166.16113281 170.27001953 167.16113281 C170.17410871 169.13689576 170.08513601 171.11323413 170.03076172 173.09057617 C169.48214806 191.87693658 166.06864886 210.71016403 153.27001953 225.16113281 C152.79435547 225.76441406 152.31869141 226.36769531 151.82861328 226.98925781 C143.21117839 236.97918233 128.86834883 241.34637347 116.27001953 243.16113281 C114.54807121 243.41827057 114.54807121 243.41827057 112.79133606 243.68060303 C107.41653132 244.34317312 102.05654496 244.3165802 96.64770508 244.32226562 C95.50662796 244.32723053 94.36555084 244.33219543 93.18989563 244.33731079 C89.42883693 244.3518681 85.66782049 244.35872573 81.90673828 244.36425781 C80.61388224 244.36708519 79.32102619 244.36991257 77.98899269 244.37282562 C71.84390996 244.3862572 65.69884587 244.39615509 59.55374974 244.40002751 C52.51590192 244.40448946 45.47825013 244.42195779 38.44046181 244.45102811 C32.96573501 244.47283765 27.49106253 244.4827421 22.01629287 244.48406863 C18.76340146 244.48510398 15.51073353 244.49224357 12.25787926 244.50888824 C-37.54702021 244.74542975 -37.54702021 244.74542975 -55.98388672 228.12988281 C-75.04285654 208.16678729 -74.20551646 177.42051521 -74.16357422 151.72753906 C-74.16815155 149.23192709 -74.17346164 146.73631636 -74.17945862 144.2407074 C-74.18832422 139.04445226 -74.18604149 133.84835136 -74.17602539 128.65209961 C-74.16453665 122.05532518 -74.18478061 115.45908618 -74.21394253 108.86238194 C-74.23245152 103.71877265 -74.23198315 98.57528827 -74.22630501 93.43165398 C-74.22615363 91.00204657 -74.23204273 88.57242967 -74.24459648 86.14285469 C-74.34171941 64.27606397 -74.22809644 37.43046204 -58.72998047 20.16113281 C-58.16794922 19.49597656 -57.60591797 18.83082031 -57.02685547 18.14550781 C-42.67496956 2.34637291 -20.17163004 0.02098759 0 0 Z M-35.72998047 10.78613281 C-36.4220459 11.05047119 -37.11411133 11.31480957 -37.82714844 11.5871582 C-43.58822572 13.89901841 -48.26202517 16.80823216 -52.72998047 21.16113281 C-53.28943359 21.70511719 -53.84888672 22.24910156 -54.42529297 22.80957031 C-69.4090045 38.8474123 -68.32440676 61.40835736 -68.20141935 81.80803657 C-68.18360282 85.39600808 -68.18737809 88.98396895 -68.18814087 92.57197571 C-68.18627907 98.58917056 -68.16906564 104.60616133 -68.14160156 110.62329102 C-68.11011987 117.54551993 -68.09960759 124.46752636 -68.10107267 131.38982171 C-68.10243104 138.81496629 -68.08851425 146.24002706 -68.07017946 153.66514611 C-68.06595009 155.7817742 -68.06450172 157.89838846 -68.06370163 160.01502037 C-68.06129046 163.98136397 -68.04175522 167.94752912 -68.02050781 171.91381836 C-68.02141418 173.0668898 -68.02232056 174.21996124 -68.02325439 175.40797424 C-67.88874409 192.70676118 -64.73048548 209.0257289 -52.72998047 222.16113281 C-46.8197449 227.35556243 -40.21314596 230.80449413 -32.72998047 233.16113281 C-31.6495195 233.5024675 -30.56905853 233.84380219 -29.45585632 234.19548035 C-23.22796131 235.72480861 -16.8712681 235.44863377 -10.4987793 235.43579102 C-9.06730383 235.4401442 -7.63583069 235.44532936 -6.20436096 235.45127869 C-2.33682721 235.46460912 1.53060847 235.46525445 5.3981607 235.46271539 C8.63151082 235.46164245 11.86484136 235.46653685 15.09818727 235.47132081 C22.72440877 235.48239358 30.350581 235.48286481 37.97680664 235.47680664 C45.83971509 235.47075662 53.70244505 235.48310894 61.56532305 235.50437671 C68.32560305 235.52198851 75.08582619 235.52799507 81.84612828 235.52473897 C85.87989719 235.52292661 89.91353852 235.5255583 93.94728661 235.53945351 C97.73702469 235.55202181 101.52648366 235.55009743 105.31621742 235.53704262 C106.70576191 235.53467577 108.09532601 235.53741544 109.48484802 235.54566574 C111.3831581 235.55612378 113.28154764 235.54623512 115.17985535 235.53535461 C116.24151004 235.53552236 117.30316473 235.5356901 118.39699078 235.53586292 C122.36541594 235.01825989 125.01886114 233.63870775 127.61566257 230.57197475 C131.67605261 222.31370048 130.82144915 213.00225677 130.77172852 204.03051758 C130.77551527 202.08484507 130.78101823 200.13917526 130.7881012 198.19351196 C130.80202749 192.92689718 130.79090536 187.66061013 130.77438998 182.39401364 C130.7605045 176.87204328 130.76700362 171.35009128 130.77052307 165.82810974 C130.77322265 156.5551935 130.759772 147.28240688 130.73657227 138.00952148 C130.70997204 127.30366994 130.70821393 116.59803517 130.71996063 105.89216191 C130.73075766 95.57597249 130.72453571 85.25986114 130.71040535 74.9436779 C130.70466147 70.56154462 130.70471566 66.17946876 130.70947075 61.79733467 C130.71425967 56.63194835 130.70405967 51.46679795 130.6825161 46.30145645 C130.67697381 44.41090249 130.67645929 42.52032573 130.68146896 40.62977028 C131.09543125 24.74766692 131.09543125 24.74766692 124.77001953 10.59863281 C121.17360065 7.0921244 118.55432463 7.03596195 113.73080444 7.03414917 C112.57853363 7.03132935 111.42626282 7.02850952 110.23907471 7.02560425 C108.97359802 7.02762848 107.70812134 7.02965271 106.40429688 7.03173828 C105.05886793 7.03038328 103.71343935 7.02860279 102.36801147 7.02642822 C98.71066745 7.02186302 95.05335159 7.02364041 91.39600706 7.02680731 C87.56451053 7.02933872 83.73301641 7.02699089 79.90151978 7.02542114 C73.46038379 7.02360042 67.01925925 7.02600184 60.578125 7.03076172 C53.14660099 7.03619031 45.71510447 7.03445153 38.28358114 7.02893531 C31.89616931 7.02438486 25.50876572 7.0237635 19.12135279 7.02637398 C15.30987449 7.02792792 11.49840907 7.02815509 7.68693161 7.02483749 C4.09677737 7.02193117 0.50665821 7.02398484 -3.08349228 7.02973175 C-5.01761579 7.03166793 -6.9517423 7.02872801 -8.88586426 7.02560425 C-18.24640429 7.04817978 -26.92072589 7.39804169 -35.72998047 10.78613281 Z " fill="#7E6460" transform="translate(76.72998046875,4.8388671875)"/>
<path d="M0 0 C8.84592919 6.770428 16.68834475 16.4492974 18.625 27.75 C19.64473992 41.50813044 17.5354173 53.76839611 8.625 64.75 C8.12355469 65.37519531 7.62210937 66.00039062 7.10546875 66.64453125 C-0.20705069 74.81106756 -11.0481568 79.21713868 -21.8125 80 C-34.88405703 80.42166313 -44.3429823 77.13573787 -54.375 68.75 C-63.82633721 59.88821989 -68.31452355 48.81143614 -68.75 36 C-68.51870947 23.96004292 -64.3589131 14.70893966 -56.375 5.75 C-40.65148968 -9.01308648 -18.45563044 -12.20137746 0 0 Z " fill="#EB6F5C" transform="translate(134.375,88.25)"/>
<path d="M0 0 C1.15243698 -0.0049649 2.30487396 -0.00992981 3.49223328 -0.01504517 C7.29056405 -0.02960245 11.08885299 -0.03645975 14.88720703 -0.04199219 C16.87268775 -0.04629342 18.85816847 -0.05059523 20.84364903 -0.05496669 C26.37869796 -0.06675406 31.91373691 -0.07430597 37.44879711 -0.07776189 C44.55570465 -0.08222606 51.66241829 -0.09970534 58.76926696 -0.12876248 C64.29578235 -0.15055593 69.82224393 -0.16047561 75.34880173 -0.16180301 C78.63351848 -0.16283932 81.91801386 -0.16999552 85.20269394 -0.18662262 C108.79067753 -0.29745775 134.13550976 -0.29375922 152.74658203 16.37988281 C163.91019311 27.87952232 168.32103462 43.03570523 169.39501953 58.66113281 C169.53998838 60.6093107 169.68825634 62.55724681 169.84033203 64.50488281 C169.89979004 65.35244141 169.95924805 66.2 170.02050781 67.07324219 C170.15751199 69.21771886 170.15751199 69.21771886 171.27001953 71.16113281 C168.30001953 71.16113281 165.33001953 71.16113281 162.27001953 71.16113281 C162.27001953 69.51113281 162.27001953 67.86113281 162.27001953 66.16113281 C162.93001953 66.16113281 163.59001953 66.16113281 164.27001953 66.16113281 C164.27001953 56.92113281 164.27001953 47.68113281 164.27001953 38.16113281 C161.96001953 38.16113281 159.65001953 38.16113281 157.27001953 38.16113281 C155.3790961 35.91507713 154.1806424 34.1373099 152.83251953 31.59863281 C146.82034821 21.38254859 140.33606065 16.57534407 129.27001953 12.16113281 C129.69825012 12.97393707 129.69825012 12.97393707 130.13513184 13.80316162 C133.82889462 21.69856444 133.73956375 29.16279404 133.55126953 37.67675781 C133.53205903 39.24275516 133.51482856 40.80877782 133.49938965 42.37481689 C133.4624284 45.79398637 133.41338027 49.2127059 133.35595703 52.6315918 C133.26122496 58.42053688 133.20841908 64.20952572 133.16064453 69.99902344 C133.06236152 81.55674406 132.93736898 93.11405622 132.80645752 104.67144775 C132.74467968 110.16408729 132.685198 115.65675172 132.62548828 121.14941406 C132.50916919 131.82001165 132.39042888 142.49058065 132.27001953 153.16113281 C131.94001953 153.16113281 131.61001953 153.16113281 131.27001953 153.16113281 C129.08494846 133.42921282 129.194277 113.57681172 129.27783203 93.75097656 C129.28166649 92.75700489 129.28550095 91.76303322 129.2894516 90.73894119 C129.32639434 81.40554389 129.37195975 72.07222931 129.44140625 62.73901367 C129.47916703 57.5791154 129.50209554 52.41932567 129.51571274 47.25930977 C129.52370524 45.31657378 129.53722489 43.37385158 129.55664444 41.43119621 C130.00176022 25.57035612 130.00176022 25.57035612 124.27001953 11.09863281 C121.00145902 7.93221482 118.07874832 8.03578322 113.73080444 8.03414917 C112.57853363 8.03132935 111.42626282 8.02850952 110.23907471 8.02560425 C108.97359802 8.02762848 107.70812134 8.02965271 106.40429688 8.03173828 C105.05886793 8.03038328 103.71343935 8.02860279 102.36801147 8.02642822 C98.71066745 8.02186302 95.05335159 8.02364041 91.39600706 8.02680731 C87.56451053 8.02933872 83.73301641 8.02699089 79.90151978 8.02542114 C73.46038379 8.02360042 67.01925925 8.02600184 60.578125 8.03076172 C53.14660099 8.03619031 45.71510447 8.03445153 38.28358114 8.02893531 C31.89616931 8.02438486 25.50876572 8.0237635 19.12135279 8.02637398 C15.30987449 8.02792792 11.49840907 8.02815509 7.68693161 8.02483749 C4.09677737 8.02193117 0.50665821 8.02398484 -3.08349228 8.02973175 C-5.01761579 8.03166793 -6.9517423 8.02872801 -8.88586426 8.02560425 C-18.24565945 8.04817798 -26.92170336 8.3966599 -35.72998047 11.78613281 C-36.422771 12.05192139 -37.11556152 12.31770996 -37.8293457 12.59155273 C-48.34690033 16.82592491 -56.61333353 24.02673943 -61.20263672 34.53222656 C-65.28209511 45.58125527 -67.0293899 55.24099301 -66.98876953 67.00195312 C-66.99227417 68.2601033 -66.99577881 69.51825348 -66.99938965 70.81452942 C-67.00844982 74.24248577 -67.00499493 77.67032072 -66.99863148 81.098279 C-66.99353384 84.70498776 -66.99827373 88.31168679 -67.00140381 91.918396 C-67.00503442 97.97735438 -67.00027013 104.03626389 -66.99072266 110.09521484 C-66.97985952 117.06897708 -66.98335173 124.04262215 -66.99437547 131.0163815 C-67.0034978 137.03116385 -67.00470902 143.04591123 -66.99949813 149.06069827 C-66.99640292 152.6408395 -66.99590039 156.22092597 -67.00257111 159.80106354 C-67.00950534 163.80168914 -66.9998517 167.80211808 -66.98876953 171.80273438 C-66.99281799 172.96680313 -66.99686646 174.13087189 -67.0010376 175.33021545 C-66.91361098 192.49291837 -63.86347912 209.24216065 -51.72998047 222.16113281 C-45.80220904 226.99150195 -39.37624557 229.98171516 -32.14013672 232.33691406 C-29.72998047 233.16113281 -29.72998047 233.16113281 -28.04164124 234.14353943 C-14.32819299 240.18020121 5.26740697 237.46023724 19.84323955 237.46705508 C23.37319778 237.47159075 26.9030834 237.48962165 30.43299866 237.5068512 C40.88104916 237.55557882 51.3291406 237.58702842 61.77728271 237.6081543 C69.94613401 237.62467642 78.11484487 237.64740144 86.28360182 237.69117504 C90.47432998 237.71292635 94.66479089 237.72101235 98.85557163 237.71878231 C102.05880239 237.72083555 105.26191512 237.74217388 108.46508789 237.76049805 C109.62291779 237.75592087 110.78074768 237.75134369 111.97366333 237.74662781 C113.55634758 237.76109955 113.55634758 237.76109955 115.17100525 237.77586365 C116.08877715 237.77787498 117.00654905 237.7798863 117.95213223 237.78195858 C120.68523821 238.22905683 121.56666446 239.03297547 123.27001953 241.16113281 C114.40130468 243.9326062 105.88958688 244.31255115 96.64770508 244.32226562 C95.50662796 244.32723053 94.36555084 244.33219543 93.18989563 244.33731079 C89.42883693 244.3518681 85.66782049 244.35872573 81.90673828 244.36425781 C80.61388224 244.36708519 79.32102619 244.36991257 77.98899269 244.37282562 C71.84390996 244.3862572 65.69884587 244.39615509 59.55374974 244.40002751 C52.51590192 244.40448946 45.47825013 244.42195779 38.44046181 244.45102811 C32.96573501 244.47283765 27.49106253 244.4827421 22.01629287 244.48406863 C18.76340146 244.48510398 15.51073353 244.49224357 12.25787926 244.50888824 C-37.54702021 244.74542975 -37.54702021 244.74542975 -55.98388672 228.12988281 C-75.04285654 208.16678729 -74.20551646 177.42051521 -74.16357422 151.72753906 C-74.16815155 149.23192709 -74.17346164 146.73631636 -74.17945862 144.2407074 C-74.18832422 139.04445226 -74.18604149 133.84835136 -74.17602539 128.65209961 C-74.16453665 122.05532518 -74.18478061 115.45908618 -74.21394253 108.86238194 C-74.23245152 103.71877265 -74.23198315 98.57528827 -74.22630501 93.43165398 C-74.22615363 91.00204657 -74.23204273 88.57242967 -74.24459648 86.14285469 C-74.34171941 64.27606397 -74.22809644 37.43046204 -58.72998047 20.16113281 C-58.16794922 19.49597656 -57.60591797 18.83082031 -57.02685547 18.14550781 C-42.67496956 2.34637291 -20.17163004 0.02098759 0 0 Z " fill="#9B9998" transform="translate(76.72998046875,4.8388671875)"/>
<path d="M0 0 C10.09197118 2.65578189 17.92547544 8.64068805 24 17 C25.27626867 19.38750261 26.45903154 21.75270608 27.50390625 24.25 C29.38594401 26.84151292 29.38594401 26.84151292 36 27 C36 36.24 36 45.48 36 55 C35.34 55 34.68 55 34 55 C34 56.65 34 58.3 34 60 C36.97 60 39.94 60 43 60 C43.02901401 64.58332006 43.04680348 69.16661651 43.0625 73.75 C43.07087891 75.05195312 43.07925781 76.35390625 43.08789062 77.6953125 C43.09111328 78.94570312 43.09433594 80.19609375 43.09765625 81.484375 C43.10289307 82.63647461 43.10812988 83.78857422 43.11352539 84.97558594 C43.01804485 87.51926964 42.74917261 89.58398313 42 92 C35.23541273 94.06515044 29.03923956 94.23863344 22 94.125 C18.37 94.08375 14.74 94.0425 11 94 C11 102.91 11 111.82 11 121 C18.59 121 26.18 121 34 121 C34 122.98 34 124.96 34 127 C26.41 127 18.82 127 11 127 C11 135.91 11 144.82 11 154 C18.59 154 26.18 154 34 154 C34 155.98 34 157.96 34 160 C24.43 160 14.86 160 5 160 C4.9906543 155.54395264 4.98130859 151.08790527 4.97167969 146.49682617 C4.93788595 131.76059057 4.88252344 117.024494 4.81609726 102.28837109 C4.77635495 93.3554118 4.7439381 84.42254 4.72900391 75.48950195 C4.71596239 67.69986205 4.68893422 59.91041502 4.64538693 52.12088376 C4.62282809 47.99960682 4.60708595 43.87856728 4.60811615 39.75722313 C4.60886609 35.87059552 4.59078301 31.98449157 4.55883217 28.09799957 C4.55037892 26.67875625 4.54855184 25.25945388 4.55419731 23.84019661 C4.58431999 15.09642141 3.63808954 7.99831987 0 0 Z " fill="#313131" transform="translate(205,16)"/>
<path d="M0 0 C2.12534659 0.14069196 4.25027529 0.28770921 6.375 0.4375 C7.55835937 0.51871094 8.74171875 0.59992187 9.9609375 0.68359375 C13 1 13 1 15 2 C14.9071875 3.8253125 14.9071875 3.8253125 14.8125 5.6875 C14.81943838 9.61462154 15.49269579 11.86586973 18 15 C21.83022773 18.43141877 24.62526185 18.42932571 29.59765625 18.3125 C32.59148467 17.9230589 34.49367546 16.62173941 37 15 C40.52709317 15.99199495 43.29428059 18.5867908 46 21 C46.495 22.485 46.495 22.485 47 24 C46.525625 24.53625 46.05125 25.0725 45.5625 25.625 C43.16557664 29.2683235 43.19453523 32.76764876 44 37 C45.71904752 40.06881816 47.80714167 42.40357084 51 44 C52.64525617 44.0761954 54.29126292 44.13673498 55.9375 44.1875 C58.6484375 44.4453125 58.6484375 44.4453125 61 45 C64.34173305 49.15185016 64.55482926 53.83601943 65 59 C64.071875 59.391875 63.14375 59.78375 62.1875 60.1875 C58.67225499 62.18636481 57.61301148 63.34950034 56 67 C55.67 68.98 55.34 70.96 55 73 C48.4 73 41.8 73 35 73 C34.79375 71.2675 34.5875 69.535 34.375 67.75 C32.36711676 55.91185507 26.37453078 46.13233903 17.16796875 38.4765625 C8.83812429 32.68951267 -1.14168437 31.0953684 -11 30 C-11 23.73 -11 17.46 -11 11 C-8.36 9.68 -5.72 8.36 -3 7 C-0.94161531 3.42695607 -0.94161531 3.42695607 0 0 Z " fill="#03FDB4" transform="translate(118,51)"/>
<path d="M0 0 C0 9.57 0 19.14 0 29 C-0.99 29.33 -1.98 29.66 -3 30 C-2.67 30.99 -2.34 31.98 -2 33 C-1.91641042 35.21089945 -1.89268236 37.42426078 -1.90234375 39.63671875 C-1.90484131 40.80678467 -1.90733887 41.97685059 -1.90991211 43.18237305 C-1.91901611 44.66906494 -1.92812012 46.15575684 -1.9375 47.6875 C-1.958125 52.410625 -1.97875 57.13375 -2 62 C-12.56 61.67 -23.12 61.34 -34 61 C-34 52.09 -34 43.18 -34 34 C-26.41 34 -18.82 34 -11 34 C-11 32.02 -11 30.04 -11 28 C-18.59 28 -26.18 28 -34 28 C-34 19.09 -34 10.18 -34 1 C-28.6478125 0.7525 -28.6478125 0.7525 -23.1875 0.5 C-22.08688232 0.44779297 -20.98626465 0.39558594 -19.85229492 0.34179688 C-18.94584229 0.30119141 -18.03938965 0.26058594 -17.10546875 0.21875 C-16.19949951 0.17685547 -15.29353027 0.13496094 -14.36010742 0.09179688 C-9.57509249 -0.03892794 -4.78680027 0 0 0 Z " fill="#01C9E9" transform="translate(250,109)"/>
<path d="M0 0 C11.22 0 22.44 0 34 0 C34.020625 4.5375 34.04125 9.075 34.0625 13.75 C34.071604 15.17538086 34.08070801 16.60076172 34.09008789 18.06933594 C34.09258545 19.19629883 34.09508301 20.32326172 34.09765625 21.484375 C34.10289307 22.63647461 34.10812988 23.78857422 34.11352539 24.97558594 C34.01743632 27.53548147 33.89423681 29.60831338 33 32 C30.29120665 33.35439668 27.99066732 33.06501451 25 33 C25 31.35 25 29.7 25 28 C23.91730835 28.00785522 23.91730835 28.00785522 22.81274414 28.01586914 C19.56267151 28.03657358 16.31261272 28.04963918 13.0625 28.0625 C11.35803711 28.07506836 11.35803711 28.07506836 9.61914062 28.08789062 C8.53955078 28.09111328 7.45996094 28.09433594 6.34765625 28.09765625 C4.84730835 28.10551147 4.84730835 28.10551147 3.31665039 28.11352539 C1 28 1 28 0 27 C-0.08758003 25.00035018 -0.10696576 22.9976389 -0.09765625 20.99609375 C-0.09515869 19.90224365 -0.09266113 18.80839355 -0.09008789 17.68139648 C-0.08098389 16.28091064 -0.07187988 14.8804248 -0.0625 13.4375 C-0.041875 9.003125 -0.02125 4.56875 0 0 Z " fill="#E57D2E" transform="translate(214,76)"/>
<path d="M0 0 C1.94382065 -0.00525696 1.94382065 -0.00525696 3.9269104 -0.01062012 C7.44319275 -0.01964574 10.95935619 -0.01624198 14.4756403 -0.00986195 C18.17409113 -0.0047548 21.87253261 -0.00950598 25.57098389 -0.01263428 C31.77422899 -0.01625848 37.97742624 -0.01151372 44.18066406 -0.00195312 C51.33579111 0.0089477 58.49080429 0.00538784 65.64592862 -0.00560594 C71.81355803 -0.0147001 77.98115331 -0.01595427 84.14878726 -0.0107286 C87.82206256 -0.00762305 91.49528442 -0.00716079 95.16855621 -0.01380157 C99.26087632 -0.02068536 103.35300174 -0.01112762 107.4453125 0 C109.25338882 -0.00607269 109.25338882 -0.00607269 111.09799194 -0.01226807 C125.79166426 0.06164443 125.79166426 0.06164443 131.27636719 4.57128906 C136.44651502 10.92318497 138.72851749 16.73505247 138.67675781 24.97070312 C138.67531769 25.6248243 138.67387756 26.27894547 138.6723938 26.95288849 C138.66485418 29.14356907 138.64256399 31.33383917 138.62011719 33.52441406 C138.61118168 35.10865884 138.6030257 36.69290816 138.59558105 38.27716064 C138.57158492 42.66185909 138.5332202 47.04632205 138.49084473 51.43087769 C138.46330622 54.31759271 138.43837041 57.20432052 138.4140625 60.09106445 C138.29854496 73.65067159 138.15389153 87.20988131 138.00030518 100.769104 C137.93852734 106.26174354 137.87904566 111.75440797 137.81933594 117.24707031 C137.70301684 127.9176679 137.58427653 138.5882369 137.46386719 149.25878906 C137.13386719 149.25878906 136.80386719 149.25878906 136.46386719 149.25878906 C134.27879612 129.52686907 134.38812466 109.67446797 134.47167969 89.84863281 C134.47551414 88.85466114 134.4793486 87.86068947 134.48329926 86.83659744 C134.520242 77.50320014 134.56580741 68.16988556 134.63525391 58.83666992 C134.67301469 53.67677165 134.6959432 48.51698192 134.70956039 43.35696602 C134.7175529 41.41423003 134.73107255 39.47150783 134.7504921 37.52885246 C135.19560788 21.66801237 135.19560788 21.66801237 129.46386719 7.19628906 C126.19530668 4.02987107 123.27259598 4.13343947 118.9246521 4.13180542 C117.77238129 4.1289856 116.62011047 4.12616577 115.43292236 4.1232605 C114.16744568 4.12528473 112.90196899 4.12730896 111.59814453 4.12939453 C110.25271558 4.12803953 108.907287 4.12625904 107.56185913 4.12408447 C103.90451511 4.11951927 100.24719924 4.12129666 96.58985472 4.12446356 C92.75835818 4.12699497 88.92686406 4.12464714 85.09536743 4.12307739 C78.65423144 4.12125667 72.21310691 4.12365809 65.77197266 4.12841797 C58.34044864 4.13384656 50.90895213 4.13210778 43.47742879 4.12659156 C37.09001696 4.12204111 30.70261338 4.12141975 24.31520045 4.12403023 C20.50372215 4.12558417 16.69225672 4.12581134 12.88077927 4.12249374 C9.29062503 4.11958742 5.70050586 4.12164109 2.11035538 4.127388 C0.17623186 4.12932418 -1.75789464 4.12638426 -3.6920166 4.1232605 C-13.0518118 4.14583423 -21.7278557 4.49431615 -30.53613281 7.88378906 C-31.22892334 8.14957764 -31.92171387 8.41536621 -32.63549805 8.68920898 C-43.15305267 12.92358116 -51.41948588 20.12439568 -56.00878906 30.62988281 C-58.38858299 37.07544713 -60.25639775 43.51109512 -61.53613281 50.25878906 C-61.86613281 50.25878906 -62.19613281 50.25878906 -62.53613281 50.25878906 C-62.24190748 36.91165806 -57.58497349 25.13161357 -48.53613281 15.25878906 C-34.35364618 2.36381868 -18.59623608 -0.06288061 0 0 Z " fill="#E3E3E3" transform="translate(71.5361328125,8.7412109375)"/>
<path d="M0 0 C0 9.57 0 19.14 0 29 C-10.56 28.67 -21.12 28.34 -32 28 C-32 19.09 -32 10.18 -32 1 C-27.60343896 0.85743635 -23.20687503 0.71496892 -18.81030273 0.57275391 C-17.31355607 0.52430919 -15.81681127 0.47580672 -14.32006836 0.42724609 C-12.17301917 0.3575967 -10.02596343 0.28815263 -7.87890625 0.21875 C-6.5854126 0.17685547 -5.29191895 0.13496094 -3.95922852 0.09179688 C-1 0 -1 0 0 0 Z " fill="#00D177" transform="translate(248,142)"/>
<path d="M0 0 C0 9.24 0 18.48 0 28 C-4.104375 28.020625 -8.20875 28.04125 -12.4375 28.0625 C-14.38160767 28.07615601 -14.38160767 28.07615601 -16.36499023 28.09008789 C-17.88394897 28.09383423 -17.88394897 28.09383423 -19.43359375 28.09765625 C-20.99678345 28.10551147 -20.99678345 28.10551147 -22.59155273 28.11352539 C-25 28 -25 28 -26 27 C-26.08758003 25.00035018 -26.10696576 22.9976389 -26.09765625 20.99609375 C-26.09443359 19.78115234 -26.09121094 18.56621094 -26.08789062 17.31445312 C-26.07951172 16.03505859 -26.07113281 14.75566406 -26.0625 13.4375 C-26.05798828 12.15423828 -26.05347656 10.87097656 -26.04882812 9.54882812 C-26.03699545 6.36583978 -26.02051068 3.18294238 -26 0 C-23.1670419 -0.1967332 -20.33403677 -0.38259641 -17.5 -0.5625 C-16.70851562 -0.61857422 -15.91703125 -0.67464844 -15.1015625 -0.73242188 C-14.31523437 -0.78076172 -13.52890625 -0.82910156 -12.71875 -0.87890625 C-12.00654297 -0.9260376 -11.29433594 -0.97316895 -10.56054688 -1.02172852 C-7.02405499 -0.99171824 -3.50930901 -0.43866363 0 0 Z " fill="#D0355F" transform="translate(241,43)"/>
<path d="M0 0 C9.57 0 19.14 0 29 0 C29 0.33 29 0.66 29 1 C21.41 1 13.82 1 6 1 C6 9.91 6 18.82 6 28 C13.59 28 21.18 28 29 28 C29 29.98 29 31.96 29 34 C21.41 34 13.82 34 6 34 C6 42.91 6 51.82 6 61 C13.59 61 21.18 61 29 61 C29 62.98 29 64.96 29 67 C19.43 67 9.86 67 0 67 C0 44.89 0 22.78 0 0 Z " fill="#097E4B" transform="translate(210,109)"/>
<path d="M0 0 C8.25 0 16.5 0 25 0 C25 9.24 25 18.48 25 28 C16.75 27.67 8.5 27.34 0 27 C0 18.09 0 9.18 0 0 Z " fill="#ECC622" transform="translate(216,176)"/>
<path d="M0 0 C0.53625 0.25394531 1.0725 0.50789063 1.625 0.76953125 C1.625 5.36958683 0.67853965 6.17777306 -2.43884277 9.31221008 C-3.02621216 9.88207138 -3.61358154 10.45193268 -4.21875 11.0390625 C-4.82126587 11.63829025 -5.42378174 12.23751801 -6.04455566 12.85490417 C-7.97888077 14.77346541 -9.92689253 16.67747708 -11.875 18.58203125 C-13.15711042 19.85264801 -14.4383704 21.12412351 -15.71875 22.39648438 C-33.25989479 39.76953125 -33.25989479 39.76953125 -36.375 39.76953125 C-37.62426758 38.39599609 -37.62426758 38.39599609 -39.01953125 36.48046875 C-39.53193359 35.78566406 -40.04433594 35.09085938 -40.57226562 34.375 C-41.37180664 33.27091797 -41.37180664 33.27091797 -42.1875 32.14453125 C-43.23410701 30.71369397 -44.28226492 29.28398973 -45.33203125 27.85546875 C-45.83943848 27.16291992 -46.3468457 26.47037109 -46.86962891 25.75683594 C-48.27515213 23.90134469 -49.74204819 22.13341879 -51.26171875 20.37109375 C-53.375 17.76953125 -53.375 17.76953125 -53.375 15.76953125 C-47.05496246 11.7587382 -47.05496246 11.7587382 -44.40625 11.80078125 C-41.33522934 13.26542187 -40.03721207 15.55932375 -38.125 18.33203125 C-37.06539062 19.84990234 -37.06539062 19.84990234 -35.984375 21.3984375 C-35.45328125 22.18089844 -34.9221875 22.96335938 -34.375 23.76953125 C-29.04798117 21.10602184 -24.76172202 17.6906568 -20.21972656 13.85083008 C-16.3086018 10.54679258 -12.38017646 7.27182348 -8.375 4.08203125 C-7.83536621 3.63585449 -7.29573242 3.18967773 -6.73974609 2.72998047 C-2.91339502 -0.28271432 -2.91339502 -0.28271432 0 0 Z " fill="#FEF9F9" transform="translate(132.375,105.23046875)"/>
<path d="M0 0 C2.64 0 5.28 0 8 0 C7.57883153 21.35324164 5.87430355 43.36257858 -9 60 C-9.556875 60.63808594 -10.11375 61.27617187 -10.6875 61.93359375 C-14.8280746 66.39046225 -19.42781445 69.53734366 -25 72 C-25.66 72 -26.32 72 -27 72 C-27.62953184 68.39449948 -27.95282358 66.45859168 -27 63 C-24.4694284 60.41643214 -21.73210639 58.39411217 -18.828125 56.2421875 C-11.72301476 50.60913049 -8.45044558 42.1680902 -5 34 C-2.69 34 -0.38 34 2 34 C2 24.76 2 15.52 2 6 C1.34 6 0.68 6 0 6 C0 4.02 0 2.04 0 0 Z " fill="#8B8B8B" transform="translate(239,170)"/>
<path d="M0 0 C10.92713898 2.86613481 20.6580196 9.54266081 27 19 C33.04983013 30.14141294 36.25939451 40.90628873 37.125 53.5 C37.26996885 55.44817788 37.41823681 57.39611399 37.5703125 59.34375 C37.62977051 60.19130859 37.68922852 61.03886719 37.75048828 61.91210938 C37.88749246 64.05658605 37.88749246 64.05658605 39 66 C36.03 66 33.06 66 30 66 C30 64.35 30 62.7 30 61 C30.66 61 31.32 61 32 61 C32 51.76 32 42.52 32 33 C29.69 33 27.38 33 25 33 C23.10917487 30.75406109 21.90962057 28.97666079 20.5625 26.4375 C15.86998082 18.40485111 10.70189503 12.69830539 2 9 C2 8.01 2 7.02 2 6 C1.01 5.67 0.02 5.34 -1 5 C-0.01 4.67 0.98 4.34 2 4 C1.34 2.68 0.68 1.36 0 0 Z " fill="#B4B4B4" transform="translate(209,10)"/>
<path d="M0 0 C7.59 0 15.18 0 23 0 C20.78633994 6.64098019 18.94960651 11.48865797 15 17 C14.58105469 17.59683594 14.16210938 18.19367188 13.73046875 18.80859375 C9.57881044 24.18062424 4.05814836 27.99072369 -2 31 C-2.66 30.67 -3.32 30.34 -4 30 C-3.79503906 29.51015625 -3.59007812 29.0203125 -3.37890625 28.515625 C-0.04354207 19.25959044 -0.3246618 9.73985397 0 0 Z " fill="#4B4B4C" transform="translate(211,204)"/>
<path d="M0 0 C9.57 0 19.14 0 29 0 C29 1.65 29 3.3 29 5 C20.75 5 12.5 5 4 5 C4.33 13.91 4.66 22.82 5 32 C12.92 32.33 20.84 32.66 29 33 C29 34.65 29 36.3 29 38 C19.43 38 9.86 38 0 38 C0 25.46 0 12.92 0 0 Z " fill="#4A4C4D" transform="translate(210,71)"/>
<path d="M0 0 C0.33 0 0.66 0 1 0 C1.0466678 20.82685704 1.08196318 41.6537055 1.10362434 62.48060417 C1.11394817 72.1503359 1.12802957 81.82003519 1.15087891 91.48974609 C1.17077899 99.91534767 1.18370838 108.34092576 1.18817699 116.76655018 C1.19079012 121.23012709 1.19695494 125.6936368 1.21146011 130.15719223 C1.22499067 134.35467119 1.22923187 138.55205498 1.22621536 142.74955368 C1.22676756 144.29354875 1.2307719 145.83754686 1.23841095 147.38152313 C1.2483016 149.48289143 1.24599073 151.58389622 1.24050903 153.68527222 C1.24235262 154.86332365 1.24419621 156.04137508 1.24609566 157.25512505 C1 160 1 160 -1 162 C-1.02505615 161.21463867 -1.0501123 160.42927734 -1.07592773 159.62011719 C-1.19332087 155.99663572 -1.31538592 152.37332532 -1.4375 148.75 C-1.47681641 147.51507813 -1.51613281 146.28015625 -1.55664062 145.0078125 C-1.59853516 143.78320312 -1.64042969 142.55859375 -1.68359375 141.296875 C-1.72025146 140.18666992 -1.75690918 139.07646484 -1.79467773 137.93261719 C-1.95992601 134.76755277 -2.21669531 131.64582326 -2.51367188 128.4921875 C-3.13089938 121.26976526 -3.12617628 114.07160532 -3.09765625 106.828125 C-3.09578571 105.41038056 -3.09436482 103.99263546 -3.09336853 102.57489014 C-3.08959336 98.88592672 -3.07980728 95.19700417 -3.06866455 91.50805664 C-3.05834144 87.72673088 -3.05384782 83.94539836 -3.04882812 80.1640625 C-3.03817928 72.77602326 -3.02116484 65.38801741 -3 58 C-2.67 58 -2.34 58 -2 58 C-1.67 66.91 -1.34 75.82 -1 85 C-0.67 56.95 -0.34 28.9 0 0 Z " fill="#9B9C99" transform="translate(209,63)"/>
<path d="M0 0 C0.33 0 0.66 0 1 0 C2.08846917 6.1457637 2.13090297 12.1279445 2.09375 18.359375 C2.08837219 20.14405182 2.08837219 20.14405182 2.08288574 21.96478271 C2.00094558 41.63072549 1.7554795 61.29622458 1.53643799 80.96099854 C1.47500039 86.50653903 1.41531822 92.05209843 1.35546875 97.59765625 C1.23865409 108.3984562 1.11995922 119.19923455 1 130 C0.67 130 0.34 130 0 130 C-4.10860521 92.6343781 -2.51709054 54.19829675 -1.5625 16.6875 C-1.53316376 15.4704689 -1.53316376 15.4704689 -1.50323486 14.22885132 C-1.44718602 11.9895763 -1.38365628 9.75068222 -1.31640625 7.51171875 C-1.27974854 6.26865967 -1.24309082 5.02560059 -1.20532227 3.74487305 C-1 1 -1 1 0 0 Z " fill="#DBD7D6" transform="translate(208,28)"/>
<path d="M0 0 C8.71566737 4.17625728 14.84222744 11.33797384 19 20 C19 20.99 19 21.98 19 23 C13.72 23 8.44 23 3 23 C2.69255859 20.99486328 2.69255859 20.99486328 2.37890625 18.94921875 C2.10690682 17.19529141 1.83476394 15.4413863 1.5625 13.6875 C1.42779297 12.80642578 1.29308594 11.92535156 1.15429688 11.01757812 C1.02216797 10.17001953 0.89003906 9.32246094 0.75390625 8.44921875 C0.63345947 7.66893311 0.5130127 6.88864746 0.38891602 6.0847168 C0.01511389 3.81720203 0.01511389 3.81720203 -1 1 C-0.67 0.67 -0.34 0.34 0 0 Z " fill="#4E4E4E" transform="translate(214,20)"/>
<path d="M0 0 C1.15941038 3.47823115 0.70820884 5.45895578 0 9 C-9.53168636 12.67561762 -9.53168636 12.67561762 -14 11 C-14.33 10.67 -14.66 10.34 -15 10 C-16.67656337 9.8960049 -18.35750531 9.86202528 -20.03727722 9.85523987 C-21.12908798 9.84834137 -22.22089874 9.84144287 -23.34579468 9.83433533 C-24.55450226 9.83172195 -25.76320984 9.82910858 -27.00854492 9.82641602 C-28.95080855 9.81614992 -30.89307217 9.80588176 -32.83533537 9.79553688 C-34.93144632 9.78528455 -37.0275548 9.77744308 -39.12367821 9.77020454 C-43.50048662 9.75475501 -47.8772226 9.73079888 -52.25398254 9.70530701 C-64.70337325 9.63411957 -77.15280758 9.57462344 -89.60229492 9.52319336 C-96.47193826 9.49473832 -103.34151163 9.45926436 -110.21108133 9.41653961 C-114.54836941 9.38998178 -118.88557832 9.37194419 -123.22293127 9.36050236 C-126.58511679 9.34909685 -129.947194 9.32500968 -133.30932617 9.30297852 C-134.49171875 9.30238937 -135.67411133 9.30180023 -136.89233398 9.30119324 C-144.9689687 9.2316376 -153.10713603 8.83311621 -161 7 C-161.33 6.34 -161.66 5.68 -162 5 C-160.84375626 5.13916336 -159.68751251 5.27832672 -158.49623108 5.42170715 C-143.05744242 7.15064629 -127.66449516 7.36149929 -112.14588428 7.43764853 C-108.48694634 7.45734101 -104.82808546 7.48693122 -101.16920471 7.51509094 C-95.05008807 7.56073887 -88.93096061 7.59927199 -82.81176758 7.63305664 C-75.74551548 7.67213153 -68.67939196 7.72147292 -61.61324638 7.77638692 C-54.77619666 7.82939646 -47.93912007 7.87654927 -41.10200691 7.92057228 C-38.20535905 7.9392493 -35.30873252 7.9597412 -32.41210747 7.98166466 C-28.38470325 8.01172546 -24.35729884 8.03309187 -20.32983398 8.0534668 C-19.13355881 8.06327072 -17.93728363 8.07307465 -16.70475769 8.08317566 C-15.6105249 8.08732483 -14.51629211 8.091474 -13.38890076 8.0957489 C-12.43907538 8.1014474 -11.48925001 8.1071459 -10.51064205 8.11301708 C-8.16340385 8.00735566 -6.22005594 7.75920479 -4 7 C-2.66847803 5.39191659 -2.66847803 5.39191659 -1.75 3.4375 C-1.1725 2.303125 -0.595 1.16875 0 0 Z " fill="#777777" transform="translate(212,234)"/>
<path d="M0 0 C5.86221887 6.78783238 7.67905178 12.93249846 7.375 21.75 C7.045 21.75 6.715 21.75 6.375 21.75 C6.045 19.77 5.715 17.79 5.375 15.75 C4.715 15.75 4.055 15.75 3.375 15.75 C3.20484375 15.08613281 3.0346875 14.42226563 2.859375 13.73828125 C1.45872779 8.63485924 0.28239494 4.53528885 -3.625 0.75 C-6.73787517 -0.28762506 -8.92100718 -0.38730288 -12.18681335 -0.40821838 C-13.922108 -0.42290161 -13.922108 -0.42290161 -15.69245911 -0.43788147 C-16.96272446 -0.44363693 -18.23298981 -0.4493924 -19.54174805 -0.45532227 C-20.89193013 -0.46490173 -22.24210922 -0.47491186 -23.59228516 -0.48532104 C-27.25932678 -0.51236875 -30.92638126 -0.53337904 -34.59346747 -0.55332303 C-38.42519462 -0.5751834 -42.25688211 -0.60257184 -46.08857727 -0.62937927 C-53.34518737 -0.67930546 -60.60181948 -0.72424457 -67.85847265 -0.76740164 C-76.11959619 -0.81677464 -84.38067994 -0.87169254 -92.641765 -0.92708123 C-109.63613989 -1.04090014 -126.63055171 -1.14773939 -143.625 -1.25 C-143.625 -1.58 -143.625 -1.91 -143.625 -2.25 C-125.9792045 -2.40396767 -108.33337055 -2.55199903 -90.68746662 -2.6929636 C-82.49417337 -2.75855426 -74.30090473 -2.82608735 -66.10766602 -2.89819336 C-58.96644732 -2.96103596 -51.82520931 -3.02023389 -44.68392438 -3.07505554 C-40.90268579 -3.10421033 -37.12148201 -3.13518993 -33.34029579 -3.17053413 C-29.7806005 -3.20375039 -26.22089954 -3.23208947 -22.66113472 -3.25670624 C-20.73333962 -3.27130197 -18.80558571 -3.29105285 -16.87783813 -3.31095886 C-15.72663986 -3.31799835 -14.57544159 -3.32503784 -13.38935852 -3.33229065 C-12.39105672 -3.34058679 -11.39275492 -3.34888292 -10.36420155 -3.35743046 C-5.94087593 -3.18394929 -3.41471181 -2.92689584 0 0 Z " fill="#D3CCCB" transform="translate(202.625,13.25)"/>
<path d="M0 0 C9.57 0 19.14 0 29 0 C29 0.33 29 0.66 29 1 C21.41 1 13.82 1 6 1 C6 9.91 6 18.82 6 28 C4.02 28 2.04 28 0 28 C0 18.76 0 9.52 0 0 Z " fill="#05788B" transform="translate(210,109)"/>
<path d="M0 0 C1.98 0 3.96 0 6 0 C6 8.91 6 17.82 6 27 C12.27 27 18.54 27 25 27 C25 27.33 25 27.66 25 28 C17.08 28 9.16 28 1 28 C0.33337591 21.33375914 -0.13440934 15.023848 -0.0625 8.375 C-0.05798828 7.56160156 -0.05347656 6.74820313 -0.04882812 5.91015625 C-0.03723939 3.94007102 -0.01931397 1.97002464 0 0 Z " fill="#8F7919" transform="translate(210,176)"/>
<path d="M0 0 C2.64 0 5.28 0 8 0 C7.09620838 26.3826326 7.09620838 26.3826326 5 32 C4.01 32.66 3.02 33.32 2 34 C2 24.76 2 15.52 2 6 C1.34 6 0.68 6 0 6 C0 4.02 0 2.04 0 0 Z " fill="#909793" transform="translate(239,170)"/>
<path d="M0 0 C1.65 0 3.3 0 5 0 C5.08732726 3.89569135 5.14050185 7.79112982 5.1875 11.6875 C5.22520508 13.34168945 5.22520508 13.34168945 5.26367188 15.02929688 C5.27817383 16.6293457 5.27817383 16.6293457 5.29296875 18.26171875 C5.31653442 19.73064575 5.31653442 19.73064575 5.34057617 21.22924805 C4.93539212 24.52561633 3.9949194 26.36125911 2 29 C-1.1875 30.3125 -1.1875 30.3125 -4 31 C-3.79503906 30.43796875 -3.59007812 29.8759375 -3.37890625 29.296875 C-0.30634353 19.71165542 -0.28335212 9.9759488 0 0 Z " fill="#2B2B2B" transform="translate(211,204)"/>
<path d="M0 0 C6.20356813 0.3181317 10.15209049 3.4701441 15 7 C15.86625 7.5775 16.7325 8.155 17.625 8.75 C22.9137037 13.76035087 27.15053345 20.29537282 30 27 C30 27.66 30 28.32 30 29 C27.703125 28.84765625 27.703125 28.84765625 25 28 C23.296875 25.55859375 23.296875 25.55859375 21.75 22.4375 C17.36362597 14.41014884 11.52864246 8.49893024 3 5 C3 4.01 3 3.02 3 2 C2.01 1.67 1.02 1.34 0 1 C0 0.67 0 0.34 0 0 Z " fill="#F0EFEF" transform="translate(208,14)"/>
<path d="M0 0 C1.32 0 2.64 0 4 0 C6.48005353 7.1711445 7.60585425 13.94693828 8.125 21.5 C8.26996885 23.44817788 8.41823681 25.39611399 8.5703125 27.34375 C8.62977051 28.19130859 8.68922852 29.03886719 8.75048828 29.91210938 C8.88749246 32.05658605 8.88749246 32.05658605 10 34 C7.03 34 4.06 34 1 34 C1 32.35 1 30.7 1 29 C1.66 29 2.32 29 3 29 C3 19.76 3 10.52 3 1 C2.01 0.67 1.02 0.34 0 0 Z " fill="#AFADAD" transform="translate(238,42)"/>
<path d="M0 0 C0.33 0 0.66 0 1 0 C2.18751821 6.5407749 2.15074866 12.99104256 2.125 19.625 C2.12306641 20.83381836 2.12113281 22.04263672 2.11914062 23.28808594 C2.05628191 36.86906057 1.56162867 50.43129039 1 64 C0.67 64 0.34 64 0 64 C-1.06675011 57.05447163 -1.14507522 50.24159684 -1.1328125 43.22265625 C-1.13376923 42.01556503 -1.13472595 40.80847382 -1.13571167 39.56480408 C-1.13638948 37.0274958 -1.13456312 34.49018576 -1.13037109 31.95288086 C-1.12498444 28.05123059 -1.13034631 24.14969374 -1.13671875 20.24804688 C-1.13605854 17.78124974 -1.13477856 15.31445269 -1.1328125 12.84765625 C-1.13584885 11.08845604 -1.13584885 11.08845604 -1.13894653 9.29371643 C-1.13579437 8.21847214 -1.13264221 7.14322784 -1.12939453 6.03540039 C-1.12859894 5.08468155 -1.12780334 4.13396271 -1.12698364 3.1544342 C-1 1 -1 1 0 0 Z " fill="#F3F4F4" transform="translate(208,28)"/>
<path d="M0 0 C9.57 0 19.14 0 29 0 C29 1.65 29 3.3 29 5 C19.43 5 9.86 5 0 5 C0 3.35 0 1.7 0 0 Z " fill="#4F4E4C" transform="translate(210,171)"/>
<path d="M0 0 C9.57 0 19.14 0 29 0 C29 1.65 29 3.3 29 5 C19.43 5 9.86 5 0 5 C0 3.35 0 1.7 0 0 Z " fill="#4C4E4F" transform="translate(210,137)"/>
<path d="M0 0 C9.57 0 19.14 0 29 0 C29 1.65 29 3.3 29 5 C19.43 5 9.86 5 0 5 C0 3.35 0 1.7 0 0 Z " fill="#4F4E4D" transform="translate(210,71)"/>
<path d="M0 0 C0.33 1.32 0.66 2.64 1 4 C2.32 4 3.64 4 5 4 C5.33 13.24 5.66 22.48 6 32 C4.02 32 2.04 32 0 32 C0 21.44 0 10.88 0 0 Z " fill="#76263B" transform="translate(210,39)"/>
<path d="M0 0 C-3.76255597 2.50837065 -6.82596099 4.33409883 -11.125 5.6875 C-20.54483408 9.06770431 -27.90458005 15.3720944 -33 24 C-36.24395115 31.4258086 -38.49206332 39.04906113 -40 47 C-40.33 47 -40.66 47 -41 47 C-40.70577467 33.652869 -36.04884067 21.87282451 -27 12 C-20.43007175 6.02650378 -9.56769291 -3.32211559 0 0 Z " fill="#F3EDEC" transform="translate(50,12)"/>
<path d="M0 0 C1.32 0 2.64 0 4 0 C4.33 9.24 4.66 18.48 5 28 C3.35 28 1.7 28 0 28 C0 18.76 0 9.52 0 0 Z " fill="#773F15" transform="translate(210,76)"/>
<path d="M0 0 C0.33 0 0.66 0 1 0 C1.0750148 4.08926849 1.12900317 8.17826207 1.16479492 12.26806641 C1.17973947 13.65485627 1.20010278 15.04160007 1.22631836 16.42822266 C1.57542641 35.38958173 1.57542641 35.38958173 -4.375 43.0625 C-7.0495316 45.03655904 -8.71855319 45.71873313 -12 46 C-10.8553125 44.9790625 -10.8553125 44.9790625 -9.6875 43.9375 C-4.78276996 38.576516 -3.63632131 33.67068717 -3.48828125 26.53515625 C-3.47033005 25.85698349 -3.45237885 25.17881073 -3.43388367 24.48008728 C-3.38025057 22.34095243 -3.34603956 20.20203442 -3.3125 18.0625 C-3.27928508 16.60088157 -3.24479163 15.1392916 -3.20898438 13.67773438 C-3.12455397 10.1186979 -3.0575203 6.55958488 -3 3 C-2.67 3 -2.34 3 -2 3 C-1.67 11.58 -1.34 20.16 -1 29 C-0.67 19.43 -0.34 9.86 0 0 Z " fill="#8C7A74" transform="translate(210,194)"/>
<path d="M0 0 C-0.74443359 0.63615234 -0.74443359 0.63615234 -1.50390625 1.28515625 C-5.7229299 4.9277668 -9.72536941 8.66289088 -13.5546875 12.71484375 C-15 14 -15 14 -17 14 C-17.103125 14.70125 -17.20625 15.4025 -17.3125 16.125 C-18.09818073 19.41057396 -19.41643047 22.02288928 -21 25 C-21.391875 25.78375 -21.78375 26.5675 -22.1875 27.375 C-22.455625 27.91125 -22.72375 28.4475 -23 29 C-23.33 28.67 -23.66 28.34 -24 28 C-23.59991348 18.39792363 -17.81088327 10.44726322 -11 4 C-4.08471761 -1.36157254 -4.08471761 -1.36157254 0 0 Z " fill="#EA6150" transform="translate(92,87)"/>
<path d="M0 0 C-0.98378287 2.19459255 -1.77896406 3.79664694 -3.5625 5.4375 C-5.62928626 7.6840068 -5.86645978 8.92857492 -6 12 C-5.30858397 14.32832265 -4.49977999 16.56304717 -3.59375 18.81640625 C-2.89591527 21.38278529 -3.03072689 22.53991596 -4 25 C-5.26953125 26.88671875 -5.26953125 26.88671875 -6.8125 28.6875 C-7.31394531 29.28949219 -7.81539062 29.89148438 -8.33203125 30.51171875 C-10.24454548 32.218201 -11.45195782 32.77775697 -14 33 C-14.66 32.34 -15.32 31.68 -16 31 C-15.278125 30.79375 -14.55625 30.5875 -13.8125 30.375 C-10.0744694 28.54751837 -8.50753083 26.29561194 -6 23 C-6.309375 22.38125 -6.61875 21.7625 -6.9375 21.125 C-9.34144124 16.31711753 -9.6180853 12.38146268 -9 7 C-7.13224742 2.56519412 -4.98313477 0 0 0 Z " fill="#E75144" transform="translate(174,149)"/>
<path d="M0 0 C1.32 0 2.64 0 4 0 C0.92283504 10.90994849 -6.06597197 21.88662792 -16.0625 27.625 C-17.5165625 28.305625 -17.5165625 28.305625 -19 29 C-17.89023768 26.00364173 -16.80020503 24.84107218 -14.25 22.8125 C-7.05755527 17.05504424 -3.49908398 8.28322977 0 0 Z " fill="#B2B2B2" transform="translate(234,204)"/>
<path d="M0 0 C5.63879968 -0.35992338 10.96118474 0.24968943 16 3 C17.26171875 5.109375 17.26171875 5.109375 18 7 C17.01 7.495 17.01 7.495 16 8 C16.66 8.33 17.32 8.66 18 9 C18 9.66 18 10.32 18 11 C10.16901408 9.04225352 10.16901408 9.04225352 7 6 C7 5.34 7 4.68 7 4 C5.35 3.67 3.7 3.34 2 3 C2 2.34 2 1.68 2 1 C1.34 0.67 0.68 0.34 0 0 Z " fill="#A4A4A4" transform="translate(193,7)"/>
<path d="M0 0 C0.66 0 1.32 0 2 0 C4 3 4 3 4 4.875 C2.77824309 7.47123344 1.03198715 8.84689391 -1.234375 10.55859375 C-3.65982481 12.53866229 -5.80653675 14.77168076 -8 17 C-9.32848783 18.33036567 -10.6579991 19.65970978 -11.98828125 20.98828125 C-13.04692383 22.04692383 -13.04692383 22.04692383 -14.12695312 23.12695312 C-17.41796875 26.41796875 -20.70898438 29.70898438 -24 33 C-24.66 32.67 -25.32 32.34 -26 32 C-25.17685303 31.20827393 -24.35370605 30.41654785 -23.50561523 29.60083008 C-20.45845534 26.66218997 -17.43113139 23.70380097 -14.40942383 20.73901367 C-13.09835517 19.45813677 -11.78195465 18.18269405 -10.46020508 16.9128418 C-8.56207138 15.08741168 -6.68391728 13.24335122 -4.80859375 11.39453125 C-4.21284042 10.82974564 -3.6170871 10.26496002 -3.00328064 9.68305969 C-1.14702244 7.89673165 -1.14702244 7.89673165 1 5 C1.02906376 2.16981521 1.02906376 2.16981521 0 0 Z " fill="#E74B3B" transform="translate(133,104)"/>
<path d="M0 0 C2.468281 2.468281 2.33958623 3.45296149 2.59765625 6.8671875 C2.67693359 7.83527344 2.75621094 8.80335937 2.83789062 9.80078125 C2.91201172 10.81527344 2.98613281 11.82976562 3.0625 12.875 C3.21724485 14.87261528 3.37469353 16.87002339 3.53515625 18.8671875 C3.600979 19.75519043 3.66680176 20.64319336 3.73461914 21.55810547 C3.97737731 23.79183795 4.39419779 25.83996497 5 28 C0.95110712 24.42744746 -0.03456672 20.19336525 -1 15 C-1.27910858 10.31881048 -1.33841351 5.67921756 -1 1 C-0.67 0.67 -0.34 0.34 0 0 Z " fill="#EA5C4D" transform="translate(67,116)"/>
<path d="M0 0 C0.66 0 1.32 0 2 0 C2.50961846 1.39235043 3.00724909 2.78909118 3.5 4.1875 C3.7784375 4.96480469 4.056875 5.74210937 4.34375 6.54296875 C5.06768451 9.25341403 5.39042252 11.21319096 5 14 C3.28515625 15.9140625 3.28515625 15.9140625 1.0625 17.625 C-2.305652 20.17644886 -2.305652 20.17644886 -4 24 C-4.66 24 -5.32 24 -6 24 C-6.375 21.8125 -6.375 21.8125 -6 19 C-3.1875 16.1875 -3.1875 16.1875 0 14 C0.99 14 1.98 14 3 14 C2.7834375 13.32453125 2.566875 12.6490625 2.34375 11.953125 C2.0653125 11.06109375 1.786875 10.1690625 1.5 9.25 C1.2215625 8.36828125 0.943125 7.4865625 0.65625 6.578125 C0 4 0 4 0 0 Z " fill="#DC3E33" transform="translate(180,96)"/>
<path d="M0 0 C0.66 0 1.32 0 2 0 C0.60574098 3.09072196 -1.08369671 5.33485612 -3.3125 7.875 C-9.65617807 15.88389357 -12.12397306 26.1082216 -14 36 C-14.33 36 -14.66 36 -15 36 C-14.69977062 22.38050348 -9.74774016 9.74774016 0 0 Z " fill="#DDD0CE" transform="translate(24,23)"/>
<path d="M0 0 C-1.11247383 2.50306612 -2.13342034 4.13746338 -4.0625 6.125 C-6.81990009 10.21662593 -6.81204036 14.1600392 -7 19 C-8.82189635 16.91310054 -9.93941885 15.61572478 -10.21484375 12.81640625 C-9.59534074 7.78185364 -8.78478159 4.67009124 -5 1 C-3 0 -3 0 0 0 Z " fill="#E85A4C" transform="translate(147,177)"/>
<path d="M0 0 C0.66 0.66 1.32 1.32 2 2 C1.50371094 2.39316406 1.00742188 2.78632812 0.49609375 3.19140625 C-1.21384474 4.91219284 -1.21384474 4.91219284 -1.21484375 7.33984375 C-0.67461925 12.72504589 -0.67461925 12.72504589 1.6875 17.5 C4.36695068 19.23802206 6.92661286 20.16180351 10 21 C10 21.33 10 21.66 10 22 C5.76964527 22.50361366 4.29415114 22.20929985 0.75 19.6875 C-2.64826741 16.36646594 -4.29441384 14.34734883 -4.375 9.625 C-4.303876 5.26509854 -3.18896651 3.08931131 0 0 Z " fill="#D8362C" transform="translate(165,74)"/>
<path d="M0 0 C4.46397502 1.36399237 6.45588384 3.09902189 9 7 C11.72193395 12.43223571 12.32333709 16.96437434 12 23 C11.67 23 11.34 23 11 23 C10.67 21.02 10.34 19.04 10 17 C9.34 17 8.68 17 8 17 C7.84144531 16.35933594 7.68289062 15.71867187 7.51953125 15.05859375 C5.89834342 9.04855489 3.90172717 4.85079594 0 0 Z " fill="#DEDADA" transform="translate(198,12)"/>
<path d="M0 0 C9.24 0 18.48 0 28 0 C28 0.33 28 0.66 28 1 C21.07 1 14.14 1 7 1 C6.67 2.32 6.34 3.64 6 5 C4.02 5 2.04 5 0 5 C0 3.35 0 1.7 0 0 Z " fill="#4A4044" transform="translate(210,171)"/>
<path d="M0 0 C1.98 0 3.96 0 6 0 C6.33 1.32 6.66 2.64 7 4 C13.93 4 20.86 4 28 4 C28 4.33 28 4.66 28 5 C18.76 5 9.52 5 0 5 C0 3.35 0 1.7 0 0 Z " fill="#494044" transform="translate(210,137)"/>
<path d="M0 0 C9.24 0 18.48 0 28 0 C28 0.33 28 0.66 28 1 C21.07 1 14.14 1 7 1 C6.67 2.32 6.34 3.64 6 5 C4.02 5 2.04 5 0 5 C0 3.35 0 1.7 0 0 Z " fill="#404745" transform="translate(210,71)"/>
<path d="M0 0 C1.98 0 3.96 0 6 0 C6 1.32 6 2.64 6 4 C13.26 4 20.52 4 28 4 C28 4.33 28 4.66 28 5 C18.76 5 9.52 5 0 5 C0 3.35 0 1.7 0 0 Z " fill="#493F3E" transform="translate(210,104)"/>
<path d="M0 0 C4.875 0.875 4.875 0.875 6 2 C6.20356972 4.77759571 6.31931009 7.55300161 6.42578125 10.3359375 C6.75648945 13.10352158 6.75648945 13.10352158 8.85546875 14.7265625 C9.56316406 15.14679688 10.27085937 15.56703125 11 16 C11.99 16.66 12.98 17.32 14 18 C10.7266502 17.70242275 8.46529653 17.30181397 5.6875 15.5 C3.2661162 11.91276474 2.9586424 8.28464767 3 4 C3.33 3.34 3.66 2.68 4 2 C2.68 1.34 1.36 0.68 0 0 Z " fill="#E35746" transform="translate(129,51)"/>
<path d="M0 0 C0.33 0.66 0.66 1.32 1 2 C0.14694908 4.16028595 -0.80781566 6.28092726 -1.8125 8.375 C-2.62654297 10.08816406 -2.62654297 10.08816406 -3.45703125 11.8359375 C-4.62498289 14.23097758 -5.79899376 16.6214218 -7 19 C-7.33 18.67 -7.66 18.34 -8 18 C-7.71343911 11.12253861 -4.89169276 4.89169276 0 0 Z " fill="#E95748" transform="translate(76,97)"/>
<path d="M0 0 C2.64 0 5.28 0 8 0 C8 1.98 8 3.96 8 6 C5.36 6 2.72 6 0 6 C0 4.02 0 2.04 0 0 Z " fill="#87A99B" transform="translate(239,137)"/>
<path d="M0 0 C2.64 0 5.28 0 8 0 C8 1.65 8 3.3 8 5 C5.29120665 6.35439668 2.99066732 6.06501451 0 6 C0 4.02 0 2.04 0 0 Z " fill="#B5A295" transform="translate(239,103)"/>
<path d="M0 0 C6.01370182 0.37585636 10.6460739 4.49329504 14.625 8.73046875 C15.78865062 10.12222133 16.90056043 11.55698557 18 13 C17.01 14.485 17.01 14.485 16 16 C15.6596875 15.49210937 15.319375 14.98421875 14.96875 14.4609375 C11.70189407 9.821307 8.39753773 6.46185757 3.734375 3.2265625 C2 2 2 2 0 0 Z " fill="#E4E3E1" transform="translate(213,19)"/>
<path d="M0 0 C3.64969348 1.47391468 6.4277887 2.99908681 9 6 C8.67 6.66 8.34 7.32 8 8 C7.1028125 7.0409375 7.1028125 7.0409375 6.1875 6.0625 C3.33147813 3.36967938 1.51781389 3.03835658 -2.375 2.75 C-6.18872515 3.01301553 -7.95161362 3.78299172 -11 6 C-10.6875 4.125 -10.6875 4.125 -10 2 C-6.25816125 -0.49455917 -4.43756964 -0.37606522 0 0 Z " fill="#E65348" transform="translate(71,177)"/>
<path d="M0 0 C0.33 0 0.66 0 1 0 C2.15316726 6.34241995 2.09507063 12.56688704 2 19 C0.68 19 -0.64 19 -2 19 C-2 17.35 -2 15.7 -2 14 C-1.34 14 -0.68 14 0 14 C0 9.38 0 4.76 0 0 Z " fill="#DBD8D8" transform="translate(241,57)"/>
<path d="M0 0 C1.19105377 3.5731613 1.0704232 5.40643641 0 9 C-3.18161068 11.15226605 -4.97282237 11.00267321 -8.8125 10.625 C-9.864375 10.41875 -10.91625 10.2125 -12 10 C-8.32323232 8.03030303 -8.32323232 8.03030303 -6 7.8125 C-2.5759273 6.42147046 -1.63065963 3.20308142 0 0 Z " fill="#6C6C6C" transform="translate(212,234)"/>
<path d="M0 0 C2.64465038 3.1254959 3.84414715 6.08788267 5 10 C2.6875 9.9375 2.6875 9.9375 0 9 C-1.8125 5.4375 -1.8125 5.4375 -3 2 C-2.01 1.34 -1.02 0.68 0 0 Z " fill="#E9E7E7" transform="translate(233,33)"/>
<path d="M0 0 C1.32 0 2.64 0 4 0 C4.10477512 5.78591511 3.99250545 11.29309366 3 17 C2.67 17 2.34 17 2 17 C2 13.04 2 9.08 2 5 C1.34 5 0.68 5 0 5 C0 3.35 0 1.7 0 0 Z " fill="#C0BEBB" transform="translate(239,171)"/>
<path d="M0 0 C0.99 0.33 1.98 0.66 3 1 C3.1799928 6.21979128 2.97094808 10.07262981 1 15 C0.34 15 -0.32 15 -1 15 C-1.09769155 10.21311428 -0.75619086 5.7261929 0 1 C0 0.67 0 0.34 0 0 Z " fill="#E5493C" transform="translate(183,134)"/>
<path d="M0 0 C1.32 0.66 2.64 1.32 4 2 C3.2575 2.391875 2.515 2.78375 1.75 3.1875 C-1.13847132 4.86689081 -1.13847132 4.86689081 -3 7.6875 C-5 10 -5 10 -7.75 10.3125 C-8.86375 10.1578125 -8.86375 10.1578125 -10 10 C-8.68 9.67 -7.36 9.34 -6 9 C-5.938125 8.2575 -5.87625 7.515 -5.8125 6.75 C-4.75814862 3.1814261 -3.00090227 2.07754772 0 0 Z " fill="#E54739" transform="translate(100,190)"/>
<path d="M0 0 C0.66 0 1.32 0 2 0 C4 3 4 3 4 4.875 C2.46039178 8.14666747 -0.18435296 9.80379531 -3 12 C-4.01680311 12.98290968 -5.02738219 13.97334787 -6 15 C-6 12 -6 12 -4.43359375 10.3515625 C-3.77488281 9.78179687 -3.11617187 9.21203125 -2.4375 8.625 C-0.49665854 6.8610936 -0.49665854 6.8610936 1 5 C1.13210475 2.13079138 1.13210475 2.13079138 0 0 Z " fill="#E95748" transform="translate(133,104)"/>
<path d="M0 0 C0.99 0.33 1.98 0.66 3 1 C1.71451591 2.33929505 0.42141845 3.67128643 -0.875 5 C-1.59429687 5.7425 -2.31359375 6.485 -3.0546875 7.25 C-5 9 -5 9 -7 9 C-6.75881648 5.74402242 -5.47775788 4.2723696 -3.125 2.1875 C-2.09375 1.465625 -1.0625 0.74375 0 0 Z " fill="#EA6253" transform="translate(106,137)"/>
<path d="M0 0 C0.33 0.99 0.66 1.98 1 3 C-3.84060277 6.06242216 -7.29290936 7.53411505 -13 8 C-12.4225 7.7525 -11.845 7.505 -11.25 7.25 C-8.89279141 6.08272842 -8.89279141 6.08272842 -7.0625 4 C-4.81991276 1.82536995 -2.93780321 0.97926774 0 0 Z " fill="#535454" transform="translate(211,233)"/>
<path d="M0 0 C0.66 0 1.32 0 2 0 C3.65625 2.1171875 3.65625 2.1171875 5.5 4.875 C8.01696681 8.62875168 8.01696681 8.62875168 11 12 C8 12 8 12 6.2109375 10.390625 C5.60507813 9.68421875 4.99921875 8.9778125 4.375 8.25 C3.76398438 7.55390625 3.15296875 6.8578125 2.5234375 6.140625 C1.01742732 4.02448762 0.42274686 2.53648117 0 0 Z " fill="#E95748" transform="translate(72,145)"/>
<path d="M0 0 C-3.83098582 2.55399054 -6.44897135 4.26199535 -11 5 C-11 4.34 -11 3.68 -11 3 C-11.66 2.67 -12.32 2.34 -13 2 C-11.5882217 1.46605821 -10.17029756 0.94834896 -8.75 0.4375 C-7.96109375 0.14746094 -7.1721875 -0.14257812 -6.359375 -0.44140625 C-3.80896548 -1.04522837 -2.44677771 -0.8473932 0 0 Z " fill="#EBE0DE" transform="translate(50,12)"/>
<path d="M0 0 C3.1611016 3.1611016 3.38812741 3.5561582 3.6875 7.6875 C3.75324219 8.49574219 3.81898438 9.30398437 3.88671875 10.13671875 C3.92410156 10.75160156 3.96148437 11.36648437 4 12 C2.68 12 1.36 12 0 12 C0 8.04 0 4.08 0 0 Z " fill="#74600F" transform="translate(211,192)"/>
<path d="M0 0 C3.25516428 3.16474305 6.32008793 6.32752791 9 10 C9 10.66 9 11.32 9 12 C9.66 12.33 10.32 12.66 11 13 C10.01 13 9.02 13 8 13 C5.95703125 10.6640625 5.95703125 10.6640625 3.8125 7.625 C2.73935547 6.12839844 2.73935547 6.12839844 1.64453125 4.6015625 C0 2 0 2 0 0 Z " fill="#E95445" transform="translate(89,116)"/>
<path d="M0 0 C1.54591803 1.96753204 2.90593204 3.80598484 4 6.0625 C5.068464 8.132649 6.28557579 9.44143253 8 11 C5.02545866 10.67842796 3.40664722 10.37860258 1.1875 8.3125 C-0.3082321 5.39975854 -0.22022756 3.23000416 0 0 Z " fill="#E34035" transform="translate(174,123)"/>
<path d="M0 0 C7.42857143 -0.28571429 7.42857143 -0.28571429 11 2 C8.42786866 3.61949011 7.32330841 4.04408751 4.25 3.625 C3.5075 3.41875 2.765 3.2125 2 3 C2 2.34 2 1.68 2 1 C1.34 0.67 0.68 0.34 0 0 Z " fill="#A6A6A6" transform="translate(193,7)"/>
<path d="M0 0 C3.57330471 0.61256652 6.64374545 1.65749818 10 3 C11.65919896 3.36871088 13.3247643 3.71281674 15 4 C15 4.33 15 4.66 15 5 C8.63544353 5.50916452 4.94875005 5.18740389 0 1 C0 0.67 0 0.34 0 0 Z " fill="#EA5E4D" transform="translate(62,64)"/>
<path d="M0 0 C4.41889613 1.35021826 6.34345343 3.26115668 9 7 C8.01 7.66 7.02 8.32 6 9 C4 6 2 3 0 0 Z " fill="#EAE5E4" transform="translate(198,12)"/>
<path d="M0 0 C3.7910119 1.44950455 7.3874638 3.15172566 11 5 C11 5.66 11 6.32 11 7 C6.00724943 5.72278474 3.42388092 3.82669043 0 0 Z " fill="#E95B4C" transform="translate(83,158)"/>
<path d="M0 0 C1.32 0 2.64 0 4 0 C4 1.65 4 3.3 4 5 C2.68 5 1.36 5 0 5 C0 3.35 0 1.7 0 0 Z " fill="#282626" transform="translate(210,171)"/>
<path d="M0 0 C1.32 0 2.64 0 4 0 C4 1.65 4 3.3 4 5 C2.68 5 1.36 5 0 5 C0 3.35 0 1.7 0 0 Z " fill="#D1D0D1" transform="translate(239,137)"/>
<path d="M0 0 C1.32 0 2.64 0 4 0 C4 1.65 4 3.3 4 5 C2.68 5 1.36 5 0 5 C0 3.35 0 1.7 0 0 Z " fill="#252525" transform="translate(210,137)"/>
<path d="M0 0 C1.32 0 2.64 0 4 0 C4 1.65 4 3.3 4 5 C2.68 5 1.36 5 0 5 C0 3.35 0 1.7 0 0 Z " fill="#DDDBDC" transform="translate(239,104)"/>
<path d="M0 0 C1.32 0 2.64 0 4 0 C4 1.65 4 3.3 4 5 C2.68 5 1.36 5 0 5 C0 3.35 0 1.7 0 0 Z " fill="#242324" transform="translate(210,104)"/>
<path d="M0 0 C1.32 0 2.64 0 4 0 C4 1.65 4 3.3 4 5 C2.68 5 1.36 5 0 5 C0 3.35 0 1.7 0 0 Z " fill="#252625" transform="translate(210,71)"/>
<path d="M0 0 C0.33 0.66 0.66 1.32 1 2 C0.01 3.485 0.01 3.485 -1 5 C-4.125 5.1875 -4.125 5.1875 -7 5 C-4.87219421 2.65941363 -2.88437779 1.29299694 0 0 Z " fill="#5C5C5C" transform="translate(209,237)"/>
<path d="M0 0 C1.15941038 3.47823115 0.70820884 5.45895578 0 9 C-0.66 9 -1.32 9 -2 9 C-2.6875 7.3125 -2.6875 7.3125 -3 5 C-1.5625 2.25 -1.5625 2.25 0 0 Z " fill="#727272" transform="translate(212,234)"/>
<path d="M0 0 C2.125 0.9375 2.125 0.9375 4 2 C3.236875 2.45375 2.47375 2.9075 1.6875 3.375 C-0.23632814 4.53824492 -2.12941224 5.7529415 -4 7 C-3.39816251 4.97954558 -2.72693904 2.97888961 -2 1 C-1.34 0.67 -0.68 0.34 0 0 Z " fill="#E75345" transform="translate(100,190)"/>
<path d="M0 0 C0.99 0.33 1.98 0.66 3 1 C0.03 3.475 0.03 3.475 -3 6 C-3.66 5.67 -4.32 5.34 -5 5 C-3.35 3.35 -1.7 1.7 0 0 Z " fill="#E74E42" transform="translate(144,177)"/>
<path d="M0 0 C1.65 0 3.3 0 5 0 C5.33 0.99 5.66 1.98 6 3 C3.69 2.67 1.38 2.34 -1 2 C-0.67 1.34 -0.34 0.68 0 0 Z " fill="#8B8B8B" transform="translate(201,9)"/>
</svg>
